<svg width="26" height="26" viewBox="0 0 26 26" fill="none" xmlns="http://www.w3.org/2000/svg">
<path fill-rule="evenodd" clip-rule="evenodd" d="M25.7739 12.7131C25.7739 19.6162 20.177 25.2131 13.2739 25.2131C6.3708 25.2131 0.773926 19.6162 0.773926 12.7131C0.773926 5.80995 6.3708 0.213074 13.2739 0.213074C20.177 0.213074 25.7739 5.80995 25.7739 12.7131ZM13.7218 9.4412C12.5062 9.94641 10.076 10.9933 6.43226 12.5808C5.84059 12.8162 5.53018 13.0464 5.50205 13.2714C5.45413 13.6527 5.93122 13.8027 6.57913 14.0058C6.66768 14.0339 6.75934 14.062 6.85309 14.0933C7.49163 14.3006 8.34997 14.5433 8.7958 14.5527C9.20101 14.561 9.65309 14.3943 10.1521 14.0527C13.5562 11.7537 15.3135 10.5922 15.4239 10.5672C15.5021 10.5495 15.6104 10.5266 15.6833 10.5922C15.7562 10.6568 15.7489 10.7797 15.7416 10.8131C15.6937 11.0141 13.825 12.7527 12.8562 13.6527C12.5541 13.9329 12.3406 14.1318 12.2968 14.1777C12.1989 14.2787 12.0989 14.3756 12.0031 14.4683C11.4093 15.0391 10.9656 15.4683 12.0281 16.1683C12.5385 16.5047 12.9468 16.7829 13.3541 17.0599C13.7989 17.3631 14.2427 17.6652 14.8177 18.0422C14.9635 18.1381 15.1031 18.237 15.2396 18.3339C15.7573 18.7037 16.2229 19.0349 16.7979 18.9829C17.1312 18.9516 17.477 18.6381 17.652 17.7016C18.0656 15.487 18.8802 10.6912 19.0687 8.71412C19.0802 8.54996 19.0732 8.38504 19.0479 8.22245C19.0327 8.09113 18.9688 7.97029 18.8687 7.88391C18.7198 7.76203 18.4885 7.73599 18.3843 7.73807C17.9146 7.74641 17.1937 7.99745 13.7218 9.4412V9.4412Z" fill="white"/>
</svg>
