<svg width="307" height="86" viewBox="0 0 307 86" fill="none" xmlns="http://www.w3.org/2000/svg">
<rect x="0.243652" y="0.291748" width="306.329" height="85.3789" fill="white"/>
<path d="M89.3082 65.9109V26.6207H96.4927V54.5168L117.597 26.6207H124.389V65.9109H117.204V38.071L96.0998 65.9109H89.3082Z" fill="black"/>
<path d="M167.174 63.2729V31.5039H149.942L149.662 39.7549C149.549 42.5239 149.362 45.1807 149.1 47.7252C148.876 50.2697 148.539 52.571 148.09 54.629C147.641 56.6497 147.005 58.3148 146.182 59.6245C145.396 60.9342 144.385 61.7387 143.151 62.038L137.089 61.0277C138.548 61.14 139.745 60.6535 140.681 59.5684C141.654 58.4458 142.402 56.8929 142.926 54.9097C143.487 52.889 143.899 50.5503 144.161 47.8936C144.423 45.1994 144.61 42.3181 144.722 39.2497L145.115 26.6207H172.731V63.2729H167.174ZM135.685 74.4986L135.742 61.0277H178.512V74.4986H173.292V65.9109H140.962L140.905 74.4986H135.685Z" fill="black"/>
<path d="M191.742 65.9109V26.6207H195.839V59.1755L220.985 26.6207H224.746V65.9109H220.648V33.4123L195.503 65.9109H191.742Z" fill="black"/>
<path d="M260.344 66.1916C257.425 66.1916 254.712 65.7051 252.205 64.7322C249.735 63.7219 247.584 62.3187 245.75 60.5225C243.917 58.7264 242.495 56.6309 241.484 54.2361C240.474 51.8039 239.969 49.1471 239.969 46.2658C239.969 43.3845 240.474 40.7465 241.484 38.3517C242.495 35.9194 243.917 33.8052 245.75 32.0091C247.621 30.213 249.791 28.8285 252.261 27.8556C254.731 26.8452 257.425 26.3401 260.344 26.3401C263.113 26.3401 265.695 26.7891 268.089 27.6872C270.522 28.5852 272.598 29.951 274.32 31.7846L272.524 33.6368C270.84 31.9904 268.969 30.8117 266.911 30.1007C264.89 29.3523 262.738 28.9781 260.456 28.9781C257.949 28.9781 255.61 29.4085 253.44 30.2691C251.307 31.1297 249.436 32.3459 247.827 33.9175C246.255 35.4891 245.02 37.3226 244.122 39.4181C243.262 41.5136 242.831 43.7962 242.831 46.2658C242.831 48.7355 243.262 51.0181 244.122 53.1135C245.02 55.209 246.255 57.0426 247.827 58.6142C249.436 60.1858 251.307 61.4019 253.44 62.2625C255.61 63.1232 257.949 63.5535 260.456 63.5535C262.738 63.5535 264.89 63.198 266.911 62.4871C268.969 61.7387 270.84 60.5225 272.524 58.8387L274.32 60.6909C272.598 62.5245 270.522 63.909 268.089 64.8445C265.695 65.7425 263.113 66.1916 260.344 66.1916Z" fill="black"/>
<path d="M29.5371 26.6208H37.0584L51.7753 51.0174L66.2454 26.6208H73.7666L73.8228 65.911H65.2912L65.2409 42.4113L53.6725 61.7575H49.6312L38.0687 42.8238L36.4528 39.755L29.5371 26.6208Z" fill="black"/>
<path d="M29.5371 65.911H38.0687V54.3674L29.5371 61.7575V65.911Z" fill="black"/>
</svg>
