<svg width="200" height="131" viewBox="0 0 200 131" fill="none" xmlns="http://www.w3.org/2000/svg">
<path fill-rule="evenodd" clip-rule="evenodd" d="M96.1716 128.376C97.769 128.376 98.0868 126.507 98.046 125.573C97.0688 126.56 95.791 126.477 95.2743 126.313C93.2283 126.08 92.6719 123.838 92.6495 122.746C92.6315 118.977 95.1853 118.229 96.4645 118.326C99.0858 118.223 100.143 120.67 100.344 121.907V125.236C100.255 128.754 98.1683 129.898 97.1363 130.03C95.5031 130.365 94.1526 129.89 93.6815 129.611L93.8834 127.973C94.9602 128.368 95.8576 128.407 96.1716 128.376ZM88.5924 118.456L84.4956 119.319V120.684H86.4002V128.376L84.4956 128.664V130.03H90.5697V128.664L88.5924 128.376V118.456ZM106.993 118.508H109.333V125.67H110.737V127.184H109.47V128.376L110.581 128.664V130.03H105.824V128.664L107.11 128.376V127.184H102.412V125.936L106.993 118.508ZM114.909 121.491H112.725C112.725 118.762 115.286 118.248 116.566 118.333C119.826 118.192 120.368 120.523 120.232 121.706C120.294 122.907 119.231 123.701 118.691 123.948V124.182C120.298 124.743 120.544 126.287 120.466 126.989C120.294 129.469 117.795 130.206 116.566 130.265C113.338 130.452 112.504 128.159 112.491 126.989H114.734C114.874 128.128 116.014 128.388 116.566 128.376C117.814 128.376 118.139 127.452 118.145 126.989C118.333 125.649 117.444 125.131 116.976 125.04H115.143V123.226H116.976C117.771 122.852 117.931 122.057 117.911 121.706C117.943 120.474 117.028 120.191 116.566 120.204C115.474 120.095 115.007 121.017 114.909 121.491ZM98.0459 121.907V123.955C97.5571 124.617 96.7879 124.758 96.4644 124.746C95.1992 124.746 94.8589 123.309 94.8469 122.59C94.8469 120.606 95.9253 120.133 96.4644 120.145C97.5571 120.117 97.9741 121.308 98.0459 121.907ZM106.994 121.706L104.518 125.67H106.994V121.706Z" fill="white"/>
<path d="M99.9957 57.8517C97.9084 55.9302 92.0563 52.6194 84.9119 54.2085C84.47 54.3068 84.166 54.7061 84.166 55.1588V84.0102C84.166 84.6205 84.7055 85.0872 85.3112 85.0127C88.8513 84.5769 95.0505 84.2639 98.5234 87.4738C99.1615 88.0137 101.027 89.0642 103.383 88.9464C105.739 89.0642 107.604 88.013 108.242 87.473C111.715 84.2632 117.915 84.5762 121.455 85.0119C122.06 85.0865 122.6 84.6197 122.6 84.0094V55.158C122.6 54.7053 122.296 54.3061 121.854 54.2078C114.71 52.6186 108.857 55.9295 106.77 57.8509" stroke="white" stroke-width="3"/>
<path d="M102.304 70.4867V67.6153C98.7134 62.4138 101.423 57.9669 103.227 56.3936V52.5981C99.0022 55.2913 97.924 59.7491 97.913 61.6414C95.7479 60.6645 93.3585 59.8482 92.4345 59.5622C92.0914 64.4469 93.2375 68.6604 93.8534 70.1567L92.4345 69.6286C91.7216 80.903 96.8901 85.6798 99.5635 86.659V87.5501H102.304V84.7117C96.9705 83.4707 95.4387 76.8456 95.3394 73.6881C98.7194 74.5859 101.391 78.7929 102.304 80.7841V74.5793C96.5743 73.2855 95.2736 66.7571 95.3394 63.6546C98.455 64.0771 101.28 68.3854 102.304 70.4867Z" fill="white"/>
<path d="M104.15 70.4867V67.6153C107.74 62.4138 105.03 57.9669 103.227 56.3936V52.5981C107.451 55.2913 108.53 59.7491 108.541 61.6414C110.706 60.6645 113.095 59.8482 114.019 59.5622C114.362 64.4469 113.216 68.6604 112.6 70.1567L114.019 69.6286C114.732 80.903 109.564 85.6798 106.89 86.659V87.5501H104.15V84.7117C109.483 83.4707 111.015 76.8456 111.114 73.6881C107.734 74.5859 105.063 78.7929 104.15 80.7841V74.5793C109.879 73.2855 111.18 66.7571 111.114 63.6546C107.999 64.0771 105.173 68.3854 104.15 70.4867Z" fill="white"/>
<path d="M73.2855 61.4498V42.4539H102.944L132.602 42.4539V60.3528M73.2855 73.3609C72.5568 86.7851 77.8019 106.703 102.944 108.118C128.085 106.703 133.33 86.9933 132.602 73.3609" stroke="white" stroke-width="3"/>
<path d="M153.602 19.2957V13.3167H171.989C178.054 13.681 189.155 17.8814 189.155 34.0183C189.155 39.2258 185.49 49.3837 174.304 51.441M174.304 51.441V75.8714C174.304 77.9073 175.795 82.0562 179.961 82.1076M174.304 51.441C162.729 45.7931 153.848 49.9684 148.246 55.6008M179.961 82.1076C181.954 82.1076 186.069 80.3075 186.069 75.8714C186.069 75.4085 186.069 67.728 186.069 63.2062M179.961 82.1076V91.6869C179.854 94.1299 180.863 99.1446 186.069 99.1446V117.403H168.582C168.582 113.996 170.035 108.068 177.133 108.274V102.488C173.855 102.488 167.54 101.485 165.432 93.3585M186.069 63.2062C185.983 60.206 188.332 53.1383 198.413 54.7841C198.413 59.2202 194.555 65.4564 186.069 63.2062ZM165.432 93.3585C163.311 93.3585 159.453 94.1299 159.453 102.488H135.987C135.494 99.6804 136.566 93.3585 142.223 93.3585H151.225C151.225 88.5367 149.361 79.536 164.895 82.1076M165.432 93.3585V85.4507C165.325 81.6576 162.99 73.6213 153.667 72.5283M153.667 72.5283C153.667 68.6066 155.147 60.7631 163.89 60.7631M153.667 72.5283H132.516C129.302 72.5283 126.6 71.1139 126.6 67.0636C126.6 64.2991 128.899 61.2534 132.885 61.2534C134.479 62.6032 135.599 63.5016 137.208 63.7205H142.223C142.418 63.7205 142.595 63.6069 142.679 63.4305C143.814 61.0477 145.689 58.1724 148.246 55.6008M148.246 55.6008C144.781 51.4069 140.834 41.8489 152.766 37.1685M152.766 37.1685C157.095 37.3614 165.74 35.2655 165.688 25.339C168.453 25.339 171.539 23.9247 171.539 19.2957H141.322C141.322 23.7961 141.901 29.7751 147.816 29.7751C141.708 29.7751 141.708 32.3467 141.708 37.1685H152.766ZM152.316 25.339H158.102" stroke="white" stroke-width="3"/>
<path d="M52.2507 36.8297C38.3833 39.5018 34.6862 30.7829 34.6862 25.2543C33.5304 25.2543 32.6178 25.061 31.8973 24.7352M52.2507 36.8297C57.1649 38.0583 66.7066 44.489 58.2374 55.5546M52.2507 36.8297C52.0398 33.6431 54.3826 28.5945 61.4085 30.0342C61.0636 26.0606 58.944 19.2894 49.3148 19.1499H29.2156C29.2156 20.9339 29.4231 23.6161 31.8973 24.7352M31.8973 24.7352V48.8082M31.8973 48.8082C26.7629 48.3475 26.1471 41.9061 25.9336 38.615C25.3808 30.0918 18.735 28.0186 15.4525 28.0186H2.26465C2.26465 34.1761 7.95222 36.7004 10.2068 37.2162M31.8973 48.8082C40.6808 48.8082 58.2013 48.2392 63.1625 63.6154C63.2175 63.7859 63.3575 63.9214 63.5333 63.9553C65.9658 64.4246 71.0004 64.4798 73.79 61.2474C75.5177 61.1514 79.0421 62.2034 79.3185 67.1791C77.2133 67.1791 73.2906 67.4989 73.2906 72.4746H53.3124M53.3124 72.4746C53.3124 68.7204 51.0053 61.2474 42.5134 60.767M53.3124 72.4746C49.6277 72.4746 44.5149 74.3081 42.1032 81.6156M40.7986 93.9663C40.7986 96.9432 37.1884 102.77 29.4613 102.77V108.09C33.0082 108.09 38.0118 110.371 38.0118 117.338H19.8974V99.7933C21.6497 99.54 25.319 97.8425 25.9778 93.0796V81.6156M40.7986 93.9663C40.5554 88.7076 41.0917 84.6802 42.1032 81.6156M40.7986 93.9663C47.8291 93.9663 47.449 98.0201 47.449 102.137H70.3137C70.3137 91.5596 60.3698 93.0796 55.8729 93.0796C56.2529 80.9823 47.3857 81.6156 42.1032 81.6156M25.9778 81.6156C28.7012 81.6156 31.8973 80.7922 31.8973 76.6753V55.014M25.9778 81.6156C21.4803 81.6156 20.2191 78.322 20.1507 76.6753V69.7082M20.1507 69.7082C20.1507 65.7813 19.1373 60.767 8.37003 60.767C8.37003 64.7679 10.9035 71.2916 20.1507 69.7082ZM31.8973 55.014H36.1117M31.8973 55.014H11.0935C7.73666 55.014 2.26465 52.6072 2.26465 46.0834H10.0043M17.7439 46.0834H10.0043M10.0043 46.0834C7.98167 45.7034 2.66969 43.4866 2.66969 37.2162H10.2068M17.7439 37.2162H10.2068M45.2322 25.2543H51.1226M27.4978 13.3381H51.1226" stroke="white" stroke-width="3"/>
<path d="M85.2525 27.8852H73.4932V34.1291H85.2525M85.2525 34.1291V19.3521M85.2525 34.1291H91.3922M85.2525 15.3976V19.3521M85.2525 19.3521H91.3922M97.532 19.3521H91.3922M97.532 34.1291H103.048H108.563M97.532 34.1291H91.3922M97.532 34.1291V13.4204M97.532 9.07126V13.4204M91.3922 19.3521V34.1291M97.532 13.4204H103.048M103.048 13.4204V0.724609M103.048 13.4204H108.563M120.843 27.8852H132.602V34.1291H120.843M120.843 27.8852V34.1291M120.843 27.8852V19.3521M120.843 34.1291H114.703M120.843 19.3521V15.3976M120.843 19.3521H114.703M108.563 34.1291H114.703M108.563 34.1291V19.3521M114.703 19.3521H108.563M114.703 19.3521V34.1291M108.563 19.3521V13.4204M108.563 13.4204V9.07126" stroke="white" stroke-width="3"/>
</svg>
