<svg width="172" height="140" viewBox="0 0 172 140" fill="none" xmlns="http://www.w3.org/2000/svg">
<path d="M12.0672 119.356L8.91773 114.487L10.8103 113.346L14.7255 119.356H12.0672ZM5.49377 119.356V109.243H7.81975V119.356H5.49377ZM7.14074 115.282V113.332H10.6658V115.282H7.14074ZM11.027 114.56L8.87439 114.3L12.1539 109.243H14.6243L11.027 114.56Z" fill="white"/>
<path d="M20.6193 119.53C19.8199 119.53 19.0783 119.399 18.3944 119.139C17.7203 118.879 17.1327 118.513 16.6319 118.041C16.1407 117.57 15.7554 117.016 15.4761 116.38C15.2065 115.744 15.0716 115.051 15.0716 114.3C15.0716 113.548 15.2065 112.855 15.4761 112.219C15.7554 111.584 16.1455 111.03 16.6464 110.558C17.1472 110.086 17.7347 109.72 18.4089 109.46C19.0831 109.2 19.8151 109.07 20.6049 109.07C21.4043 109.07 22.1362 109.2 22.8008 109.46C23.475 109.72 24.0577 110.086 24.5489 110.558C25.0497 111.03 25.4398 111.584 25.7191 112.219C25.9984 112.845 26.1381 113.539 26.1381 114.3C26.1381 115.051 25.9984 115.749 25.7191 116.394C25.4398 117.03 25.0497 117.584 24.5489 118.056C24.0577 118.518 23.475 118.879 22.8008 119.139C22.1362 119.399 21.4091 119.53 20.6193 119.53ZM20.6049 117.536C21.0575 117.536 21.4717 117.459 21.8473 117.305C22.2326 117.151 22.5697 116.929 22.8586 116.64C23.1475 116.351 23.3691 116.009 23.5232 115.614C23.6869 115.219 23.7688 114.781 23.7688 114.3C23.7688 113.818 23.6869 113.38 23.5232 112.985C23.3691 112.59 23.1475 112.248 22.8586 111.959C22.5793 111.67 22.247 111.449 21.8617 111.295C21.4765 111.141 21.0575 111.064 20.6049 111.064C20.1522 111.064 19.7332 111.141 19.348 111.295C18.9723 111.449 18.64 111.67 18.3511 111.959C18.0622 112.248 17.8358 112.59 17.6721 112.985C17.518 113.38 17.4409 113.818 17.4409 114.3C17.4409 114.772 17.518 115.21 17.6721 115.614C17.8358 116.009 18.0573 116.351 18.3367 116.64C18.6256 116.929 18.9627 117.151 19.348 117.305C19.7332 117.459 20.1522 117.536 20.6049 117.536Z" fill="white"/>
<path d="M27.941 119.356V109.243H29.8769L34.1822 116.38H33.1564L37.3894 109.243H39.3253L39.3398 119.356H37.1438L37.1294 112.609H37.5483L34.1533 118.287H33.1131L29.6458 112.609H30.137V119.356H27.941Z" fill="white"/>
<path d="M41.852 119.356V109.243H51.0692V119.356H48.7432V110.616L49.2778 111.15H43.6434L44.178 110.616V119.356H41.852Z" fill="white"/>
<path d="M58.4737 112.566C59.6969 112.566 60.6408 112.841 61.3053 113.39C61.9699 113.929 62.3022 114.743 62.3022 115.831C62.3022 116.987 61.9314 117.863 61.1897 118.46C60.4578 119.058 59.4416 119.356 58.1414 119.356H53.5761V109.243H55.9021V112.566H58.4737ZM58.0114 117.622C58.6085 117.622 59.0805 117.473 59.4272 117.175C59.7739 116.876 59.9473 116.443 59.9473 115.874C59.9473 115.316 59.7739 114.916 59.4272 114.675C59.0901 114.425 58.6182 114.3 58.0114 114.3H55.9021V117.622H58.0114Z" fill="white"/>
<path d="M63.9882 119.356V109.243H66.3142V113.216H68.9291V115.239H66.3142V119.356H63.9882ZM72.9165 119.53C72.146 119.53 71.4332 119.399 70.7783 119.139C70.133 118.879 69.5696 118.518 69.088 118.056C68.6064 117.584 68.2308 117.03 67.9611 116.394C67.7011 115.749 67.5711 115.051 67.5711 114.3C67.5711 113.539 67.7011 112.841 67.9611 112.205C68.2308 111.569 68.6064 111.02 69.088 110.558C69.5696 110.086 70.133 109.72 70.7783 109.46C71.4332 109.2 72.146 109.07 72.9165 109.07C73.6774 109.07 74.3853 109.2 75.0402 109.46C75.6951 109.72 76.2586 110.086 76.7305 110.558C77.2121 111.02 77.5877 111.574 77.8574 112.219C78.1271 112.855 78.2619 113.548 78.2619 114.3C78.2619 115.051 78.1271 115.749 77.8574 116.394C77.5877 117.03 77.2121 117.584 76.7305 118.056C76.2586 118.518 75.6951 118.879 75.0402 119.139C74.3853 119.399 73.6774 119.53 72.9165 119.53ZM72.9165 117.536C73.3403 117.536 73.7303 117.459 74.0867 117.305C74.443 117.151 74.7561 116.934 75.0257 116.655C75.2954 116.366 75.5073 116.024 75.6614 115.629C75.8155 115.234 75.8926 114.791 75.8926 114.3C75.8926 113.808 75.8155 113.365 75.6614 112.971C75.5073 112.576 75.2954 112.239 75.0257 111.959C74.7561 111.67 74.443 111.449 74.0867 111.295C73.7303 111.141 73.3403 111.064 72.9165 111.064C72.5023 111.064 72.1123 111.141 71.7463 111.295C71.3899 111.449 71.0769 111.67 70.8072 111.959C70.5375 112.239 70.3256 112.576 70.1715 112.971C70.0174 113.365 69.9404 113.808 69.9404 114.3C69.9404 114.791 70.0174 115.234 70.1715 115.629C70.3256 116.024 70.5375 116.366 70.8072 116.655C71.0769 116.934 71.3899 117.151 71.7463 117.305C72.1123 117.459 72.5023 117.536 72.9165 117.536Z" fill="white"/>
<path d="M82.1264 119.356V110.616L82.6609 111.15H78.9047V109.243H87.6741V111.15H83.9178L84.4379 110.616V119.356H82.1264Z" fill="white"/>
<path d="M91.2962 113.317H96.1649V115.138H91.2962V113.317ZM91.4696 117.478H96.9739V119.356H89.1436V109.243H96.7861V111.121H91.4696V117.478Z" fill="white"/>
<path d="M98.8643 119.356V109.243H103.242C104.147 109.243 104.927 109.392 105.582 109.691C106.237 109.98 106.743 110.399 107.099 110.948C107.456 111.497 107.634 112.152 107.634 112.913C107.634 113.664 107.456 114.314 107.099 114.863C106.743 115.412 106.237 115.836 105.582 116.134C104.927 116.423 104.147 116.568 103.242 116.568H100.165L101.205 115.513V119.356H98.8643ZM101.205 115.773L100.165 114.661H103.112C103.834 114.661 104.373 114.507 104.73 114.199C105.086 113.89 105.264 113.462 105.264 112.913C105.264 112.354 105.086 111.921 104.73 111.613C104.373 111.304 103.834 111.15 103.112 111.15H100.165L101.205 110.038V115.773Z" fill="white"/>
<path d="M116.112 109.243H118.453V119.356H116.112V109.243ZM111.518 119.356H109.178V109.243H111.518V119.356ZM116.286 115.21H111.345V113.231H116.286V115.21Z" fill="white"/>
<path d="M119.845 119.356L124.353 109.243H126.664L131.186 119.356H128.73L125.032 110.428H125.956L122.243 119.356H119.845ZM122.099 117.189L122.72 115.412H127.921L128.557 117.189H122.099Z" fill="white"/>
<path d="M137.755 119.356V116.163L138.333 116.669H135.559C134.683 116.669 133.927 116.525 133.291 116.236C132.656 115.947 132.169 115.528 131.832 114.979C131.495 114.43 131.326 113.775 131.326 113.014C131.326 112.224 131.505 111.55 131.861 110.991C132.227 110.423 132.737 109.99 133.392 109.691C134.047 109.392 134.818 109.243 135.704 109.243H140.067V119.356H137.755ZM131.355 119.356L133.869 115.73H136.238L133.826 119.356H131.355ZM137.755 115.412V110.543L138.333 111.15H135.762C135.097 111.15 134.587 111.304 134.23 111.613C133.884 111.921 133.71 112.378 133.71 112.985C133.71 113.572 133.879 114.025 134.216 114.343C134.553 114.661 135.049 114.82 135.704 114.82H138.333L137.755 115.412Z" fill="white"/>
<path d="M4.38135 137.114L8.88884 127.001H11.2004L15.7223 137.114H13.2663L9.56785 128.186H10.4925L6.77956 137.114H4.38135ZM6.63509 134.947L7.25632 133.17H12.4573L13.0929 134.947H6.63509Z" fill="white"/>
<path d="M23.6079 137.114L20.4585 132.245L22.351 131.104L26.2662 137.114H23.6079ZM17.0345 137.114V127.001H19.3605V137.114H17.0345ZM18.6815 133.04V131.09H22.2066V133.04H18.6815ZM22.5677 132.318L20.4151 132.058L23.6946 127.001H26.1651L22.5677 132.318Z" fill="white"/>
<path d="M26.0096 137.114L30.5171 127.001H32.8287L37.3506 137.114H34.8946L31.1961 128.186H32.1208L28.4079 137.114H26.0096ZM28.2634 134.947L28.8846 133.17H34.0856L34.7212 134.947H28.2634Z" fill="white"/>
<path d="M45.4516 136.074V128.908H41.9843L41.9409 130.382C41.912 131.008 41.8687 131.6 41.8109 132.159C41.7627 132.717 41.6857 133.228 41.5798 133.69C41.4738 134.143 41.3341 134.528 41.1608 134.846C40.9971 135.164 40.79 135.39 40.5396 135.525L38.0402 135.207C38.3869 135.217 38.6711 135.096 38.8926 134.846C39.1237 134.595 39.3067 134.244 39.4416 133.791C39.5764 133.329 39.6727 132.79 39.7305 132.173C39.7979 131.557 39.8461 130.887 39.875 130.165L39.9906 127.001H47.7631V136.074H45.4516ZM37.7079 139.209L37.7224 135.207H49.1789V139.209H47.0119V137.114H39.875V139.209H37.7079Z" fill="white"/>
<path d="M52.907 131.075H57.7757V132.895H52.907V131.075ZM53.0804 135.236H58.5848V137.114H50.7544V127.001H58.3969V128.879H53.0804V135.236Z" fill="white"/>
<path d="M60.4752 137.114V127.001H62.4111L66.7163 134.138H65.6906L69.9236 127.001H71.8595L71.8739 137.114H69.678L69.6635 130.367H70.0825L66.6874 136.045H65.6472L62.1799 130.367H62.6711V137.114H60.4752Z" fill="white"/>
<path d="M74.3861 137.114V127.001H76.7121V133.589L81.5374 127.001H83.7334V137.114H81.4219V130.541L76.5965 137.114H74.3861Z" fill="white"/>
<path d="M92.0157 137.114V133.921L92.5936 134.427H89.8198C88.9433 134.427 88.1873 134.282 87.5516 133.993C86.9159 133.705 86.4295 133.286 86.0924 132.737C85.7553 132.188 85.5868 131.533 85.5868 130.772C85.5868 129.982 85.765 129.308 86.1213 128.749C86.4873 128.181 86.9978 127.747 87.6527 127.449C88.3077 127.15 89.0782 127.001 89.9642 127.001H94.3273V137.114H92.0157ZM85.6157 137.114L88.1295 133.488H90.4988L88.0861 137.114H85.6157ZM92.0157 133.17V128.301L92.5936 128.908H90.022C89.3575 128.908 88.847 129.062 88.4906 129.37C88.1439 129.679 87.9706 130.136 87.9706 130.743C87.9706 131.33 88.1391 131.783 88.4762 132.101C88.8133 132.419 89.3093 132.578 89.9642 132.578H92.5936L92.0157 133.17Z" fill="white"/>
<path d="M7.87954 29.512V18.8499H20.263V29.512H31.2422V39.38H20.263V53.1119C20.263 56.1538 22.2313 57.6341 23.3055 58.0954C26.2439 59.3571 31.0185 57.4904 33.0602 56.2806L37.1435 65.1278C31.8805 69.7556 23.3055 69.9302 19.6759 69.2112C10.0573 67.3056 7.87954 58.627 7.87954 54.3523V39.38H0.166504V29.512H7.87954Z" fill="white"/>
<path fill-rule="evenodd" clip-rule="evenodd" d="M61.9281 28.5225C55.1019 28.6829 40.7542 32.3721 39.8452 48.0916C39.4273 55.3165 43.3217 68.6767 61.9281 69.5322C80.5345 68.6767 84.4288 55.3164 84.011 48.0916C83.102 32.372 68.7543 28.6829 61.9281 28.5225ZM61.9283 38.2002C59.2009 38.2002 52.6249 40.6947 52.6244 48.4126C52.6241 53.2247 54.8166 59.7477 61.9283 59.7477C69.04 59.7477 71.2325 53.2246 71.2322 48.4125C71.2317 40.6946 64.6556 38.2002 61.9283 38.2002Z" fill="white"/>
<path fill-rule="evenodd" clip-rule="evenodd" d="M88.6049 29.5494V39.4274H96.3985V76.4019H88.5596V86.4158H116.2V76.4019H108.723V64.938C110.536 66.6901 115.656 70.0582 121.637 69.5145C128.162 69.3643 141.279 65.1123 141.553 49.3066C141.838 43.2529 138.966 30.6315 125.191 28.5755C122.179 28.1472 114.67 29.2437 108.723 37.0564V29.5494H88.6049ZM108.723 45.826C110.775 43.0535 115.941 38.4051 121.013 39.1348C124.326 39.6116 130.981 43.5155 127.564 53.7252C126.546 56.769 122.619 59.639 117.394 59.2507C115.327 59.0971 111.122 57.7864 108.723 55.4445V45.826Z" fill="white"/>
<rect x="92.5996" y="0.291748" width="78.5494" height="11.6609" fill="white"/>
<rect x="171.149" y="0.291748" width="72.8809" height="11.6609" transform="rotate(90 171.149 0.291748)" fill="white"/>
</svg>
